<?xml version="1.0" standalone="no"?>
<!DOCTYPE svg PUBLIC "-//W3C//DTD SVG 1.1//EN" "http://www.w3.org/Graphics/SVG/1.1/DTD/svg11.dtd" >
<svg xmlns="http://www.w3.org/2000/svg">
<metadata>
Created by FontForge 20120731 at Sun Jul  9 17:21:16 2017
 By admin
</metadata>
<defs>
<font id="iconfont" horiz-adv-x="1024" >
  <font-face 
    font-family="iconfont"
    font-weight="500"
    font-stretch="normal"
    units-per-em="1024"
    panose-1="2 0 6 3 0 0 0 0 0 0"
    ascent="896"
    descent="-128"
    x-height="792"
    bbox="0 -212 1216 896.036"
    underline-thickness="0"
    underline-position="0"
    unicode-range="U+0078-E823"
  />
<missing-glyph 
 />
    <glyph glyph-name=".notdef" 
 />
    <glyph glyph-name=".notdef" 
 />
    <glyph glyph-name=".null" horiz-adv-x="0" 
 />
    <glyph glyph-name="nonmarkingreturn" horiz-adv-x="341" 
 />
    <glyph glyph-name="x" unicode="x" horiz-adv-x="1001" 
d="M281 543q-27 -1 -53 -1h-83q-18 0 -36.5 -6t-32.5 -18.5t-23 -32t-9 -45.5v-76h912v41q0 16 -0.5 30t-0.5 18q0 13 -5 29t-17 29.5t-31.5 22.5t-49.5 9h-133v-97h-438v97zM955 310v-52q0 -23 0.5 -52t0.5 -58t-10.5 -47.5t-26 -30t-33 -16t-31.5 -4.5q-14 -1 -29.5 -0.5
t-29.5 0.5h-32l-45 128h-439l-44 -128h-29h-34q-20 0 -45 1q-25 0 -41 9.5t-25.5 23t-13.5 29.5t-4 30v167h911zM163 247q-12 0 -21 -8.5t-9 -21.5t9 -21.5t21 -8.5q13 0 22 8.5t9 21.5t-9 21.5t-22 8.5zM316 123q-8 -26 -14 -48q-5 -19 -10.5 -37t-7.5 -25t-3 -15t1 -14.5
t9.5 -10.5t21.5 -4h37h67h81h80h64h36q23 0 34 12t2 38q-5 13 -9.5 30.5t-9.5 34.5q-5 19 -11 39h-368zM336 498v228q0 11 2.5 23t10 21.5t20.5 15.5t34 6h188q31 0 51.5 -14.5t20.5 -52.5v-227h-327z" />
    <glyph glyph-name="bianji" unicode="&#xe600;" 
d="M750 619l-13 13l-353 -354l117 -117l327 327l7 -6l28 27l-111 111zM933 592l-118 117l-39 -39l117 -117zM345 239l-40 -157l157 39zM846 246v-217q0 -22 -16 -38t-39 -16h-541q-22 0 -38 16t-16 38v542q0 22 16 38t38 16h325v108h-325q-67 0 -114.5 -47.5t-47.5 -114.5
v-542q0 -67 47.5 -114.5t114.5 -47.5h541q68 0 115.5 47.5t47.5 114.5v217h-108z" />
    <glyph glyph-name="iconfontduihua" unicode="&#xe634;" 
d="M780 246v394q0 29 -21 50t-50 21h-618q-29 0 -50 -21t-21 -50v-394q0 -30 21 -50.5t50 -20.5h118v-162l180 162h320q29 0 50 20.5t21 50.5zM933 527h-88v-345q0 -22 -23 -44.5t-45 -22.5q-30 0 -346 -1q0 -29 20.5 -46.5t50.5 -17.5h136l177 -161v161h118q30 0 50.5 17.5
t20.5 45.5v345q0 29 -20.5 49t-50.5 20z" />
    <glyph glyph-name="luleyuan6259cf" unicode="&#xe601;" 
d="M668 90q47 44 69.5 96.5t23.5 121.5q1 106 -70.5 177.5t-178.5 71.5q-106 0 -177 -71.5t-71 -177.5q0 -132 93 -218l31 63q-27 23 -44.5 68.5t-17.5 86.5q0 73 56.5 129.5t129.5 56.5q74 0 130.5 -56.5t56.5 -129.5q0 -45 -16.5 -88.5t-45.5 -66.5zM481 277l-155 -466
h371l-154 466h-62zM939 400q-17 90 -66 163q12 21 12 40q0 32 -22.5 55t-54.5 23q-19 0 -39 -12q-73 49 -165 66q-3 30 -24.5 50t-51.5 20q-29 0 -50 -18.5t-25 -46.5q-113 -13 -197 -71q-20 12 -39 12q-32 0 -55 -23t-23 -55q0 -19 13 -39q-49 -74 -66 -164
q-30 -3 -50.5 -24.5t-20.5 -51.5q0 -29 19 -50.5t48 -25.5q13 -92 63 -174q-6 -15 -6 -30q0 -32 23 -55t55 -23q5 0 20 4q31 -24 58 -35l31 62q-16 5 -37 17q6 14 6 30q0 32 -23 55t-55 23q-11 0 -26 -6q-39 70 -49 149q28 24 28 59q0 32 -24 55q16 82 62 148q2 0 4.5 -0.5
t4.5 -0.5q32 0 55 22.5t23 54.5q0 2 -1 5.5t-1 4.5q77 55 176 66q24 -29 59 -29q33 0 56 24q83 -14 148 -60q0 -2 -1 -5.5t-1 -5.5q0 -32 22.5 -54.5t55.5 -22.5q1 0 4 0.5t5 0.5q46 -67 61 -148q-24 -23 -24 -56q0 -34 27 -57q-12 -73 -61 -147q-1 0 -5.5 1t-6.5 1
q-32 0 -55 -22.5t-23 -54.5q0 -7 4 -22q-18 -14 -35 -25l31 -62q25 14 53 36q15 -5 25 -5q32 0 54.5 23t22.5 55q0 16 -7 32q52 81 65 172q29 4 48 25.5t19 49.5q0 31 -20.5 52.5t-50.5 24.5z" />
    <glyph glyph-name="factory" unicode="&#xe602;" 
d="M939 -160h-855q-19 8 -27 27v435q4 9 13.5 18.5t17 14.5t23 15t19.5 12q20 13 59 39.5t54 36.5q1 1 14 10t18.5 12t15.5 6.5t18 1.5q16 -2 23 -16t6.5 -34t-1.5 -43.5t0 -44.5q11 -2 21.5 1t16.5 7t16 11.5l14 10.5q19 13 57.5 38.5t59.5 39.5q1 1 11 8t14.5 9.5t13 7
t15.5 5.5t13 0q20 -3 25 -25t2.5 -60t-0.5 -53h69q0 -22 -0.5 -123.5t2.5 -121.5q6 68 21 239.5t23 264.5q1 7 2 29t2.5 39t4 37t8.5 33t13 16q17 8 70 7t65 -8q6 -4 9.5 -11t5.5 -19t2.5 -20t1 -25.5t1.5 -24.5q21 -366 42 -671q1 -8 3.5 -31.5t3 -36t-0.5 -28.5
t-7.5 -24.5t-17.5 -10.5zM162 259v-105h69v105h-69zM337 259v-105h70v105h-70zM511 259v-105h69v105h-69zM162 85v-105h69v105h-69zM337 85v-105h70v105h-70zM511 85v-105h69v105h-69z" />
    <glyph glyph-name="icon" unicode="&#xe605;" 
d="M884 58h-522l-148 -148v148h-74q-31 0 -53 21.5t-22 52.5v483q0 31 22 53t53 22h744q31 0 53 -22t22 -53v-483q0 -31 -22 -52.5t-53 -21.5v0zM922 615q0 16 -11 27t-27 11h-744q-16 0 -27 -11t-11 -27v-483q0 -15 11 -26t27 -11h74h37v-37v-58l84 84l11 11h16h522
q16 0 27 11t11 26v483v0zM512 336q-15 0 -26 11t-11 26.5t11 26.5t26 11t26 -11t11 -26.5t-11 -26.5t-26 -11v0zM363 336q-15 0 -26 11t-11 26.5t11 26.5t26.5 11t26 -11t10.5 -26.5t-11 -26.5t-26 -11v0zM657 336q-15 0 -26 11t-11 26.5t11 26.5t26.5 11t26.5 -11t11 -26.5
t-11 -26.5t-27 -11v0z" />
    <glyph glyph-name="yikeapp15" unicode="&#xe608;" 
d="M70 333q-2 0 -4 1q-10 1 -16 9t-4 18q15 114 81 207t167 145.5t216 52.5q91 0 176 -35q10 -4 13.5 -13t0 -18.5t-13 -13.5t-18.5 0q-77 31 -158 31q-157 0 -276 -103.5t-140 -258.5q-1 -10 -8 -16t-16 -6zM510 -172q-115 0 -216 53t-167 145.5t-81 206.5q-2 10 4 18
t16 9.5t18 -4.5t10 -16q21 -155 140 -259t276 -104q81 0 158 31q9 4 18.5 0t13 -13t0 -18.5t-13.5 -13.5q-85 -35 -176 -35zM782 -78q-11 0 -19 10q-6 8 -4.5 18t9.5 16q77 60 119.5 147t42.5 184.5t-42.5 184t-119.5 146.5q-8 7 -9.5 17t4.5 17.5t16.5 9t17.5 -4.5
q87 -67 134.5 -164t47.5 -206t-47.5 -205.5t-134.5 -163.5q-6 -6 -15 -6zM512 688q-106 0 -196.5 -52t-142.5 -142.5t-52 -196.5t52 -196t142.5 -142.5t196.5 -52.5t196.5 52.5t142.5 142.5t52 196t-52 196.5t-142.5 142.5t-196.5 52zM682 196q-1 -12 -12 -18l-300 -160
q-4 -2 -10 -2t-11 3q-10 7 -10 19l13 360q0 12 11 18l300 160q11 6 21.5 -0.5t9.5 -19.5zM594 337q-16 31 -51 42.5t-66 -4.5q-32 -17 -43.5 -51t5.5 -67q11 -22 32 -34.5t46 -12.5q21 0 39 9q32 17 43.5 51.5t-5.5 66.5zM555.5 284.5q-5.5 -16.5 -20.5 -24.5
q-15 -7 -31.5 -1.5t-23.5 19.5q-8 16 -2.5 32t20.5 24q9 4 18 4q26 0 37 -22q8 -15 2.5 -31.5z" />
    <glyph glyph-name="nv" unicode="&#xe699;" 
d="M853 61v-68h-307v-205h-68v205h-307v68h307v70q-130 13 -218.5 110.5t-88.5 229.5q0 92 45.5 171t124 124.5t171.5 45.5t171.5 -45.5t124 -124.5t45.5 -171q0 -132 -88.5 -229.5t-218.5 -110.5v-70h307zM785 471q0 113 -80 193t-193 80t-193 -80t-80 -193t80 -193
t193 -80t193 80t80 193z" />
    <glyph glyph-name="iconset0116" unicode="&#xe60f;" 
d="M802 841h-580q-35 0 -60 -25.5t-25 -60.5v-751q0 -35 25 -60t60 -25h584q36 0 61 25t25 60v755q-3 36 -29 59t-61 23zM636 802h85v-145l-43 43l-42 -43v145zM303 -34h-85q-17 0 -30 12t-13 31v750q0 17 12 30t31 13h85v-836zM845 9q0 -17 -12 -30t-31 -13h-456v836h251
v-252l86 86l85 -86v252h43q16 0 29 -12t13 -31v-750h-8z" />
    <glyph glyph-name="daochu" unicode="&#xe7d7;" 
d="M916 316q-19 0 -32 -13t-13 -32v-45v-9q0 -25 -0.5 -39.5t-4 -35t-10.5 -32.5t-20 -25.5t-32 -20.5t-47 -12t-65 -5h-359q-30 0 -54 3t-41.5 7.5t-31 13.5t-22.5 16.5t-15 22t-9 24t-4.5 28t-2 29.5t-0.5 32v3v225q-4 51 4 86t28.5 53.5t44.5 27t58 11.5v0h3q18 0 31 13
t13 31.5t-13 32.5t-31 14l-3 -1v1h-45q-74 0 -127 -52.5t-53 -127.5v-403q0 -75 53 -127.5t127 -52.5h538q75 0 127.5 52.5t52.5 127.5v134q0 19 -13 32t-32 13zM221 297q0 -65 21 -128q39 113 134 184.5t215 71.5v-64q0 -40 34 -57q13 -7 27 -7q21 0 37 13l247 192
q25 19 25 51t-25 51l-247 193q-16 13 -37 13q-14 0 -27 -7q-34 -18 -34 -58v-64q-101 0 -186 -51.5t-134.5 -140t-49.5 -192.5z" />
    <glyph glyph-name="xihuan" unicode="&#xe657;" 
d="M738 830q-67 0 -126.5 -29t-99.5 -81q-40 52 -99.5 81t-126.5 29q-118 0 -202 -83.5t-84 -201.5q0 -115 80 -198l403 -405l29 -29l29 29l396 397q87 84 87 206q0 118 -84 201.5t-202 83.5z" />
    <glyph glyph-name="qq" unicode="&#xe635;" 
d="M937 213q-5 32 -18 64t-27 54.5t-27.5 40t-22.5 25.5l-9 9q3 31 1 53.5t-7.5 36.5t-11 21.5t-10.5 10.5l-4 3q-2 67 -19.5 121t-42 86.5t-58 56.5t-61 34.5t-57.5 16.5t-41 6.5t-18 0.5t-18.5 -0.5t-41.5 -6.5t-57.5 -16.5t-60.5 -34.5t-57.5 -56.5t-42.5 -86.5t-19 -121
q-2 -1 -5 -3t-10.5 -10.5t-11 -21.5t-7.5 -36t1 -54l-9 -9t-21.5 -25.5t-28.5 -40.5t-26 -53.5t-19 -64.5q0 -5 -0.5 -11.5t0.5 -23.5t4 -30t9.5 -22.5t16.5 -8.5t27 18.5t39 52.5q25 -65 69 -124q-4 -2 -9 -4t-18.5 -10.5t-23 -18.5t-17 -27.5t-5.5 -36.5q0 -3 1 -8.5
t9.5 -18.5t24.5 -22.5t51 -17t83 -6.5q5 1 13.5 2t31 5t42 10t40 18t30.5 26h32q16 -23 55 -38t70 -19l31 -4q48 -1 83 6.5t51 17t25 23t9.5 18t0.5 8.5q6 59 -60 91l-12 6q19 26 36.5 57.5t24.5 48.5t7 18q22 -35 39 -52.5t27 -18t17 7.5t9.5 23.5t3.5 29.5t1 24z" />
    <glyph glyph-name="arrow-right" unicode="&#xe673;" 
d="M277 -47q21 -22 51.5 -22t51.5 22l367 378q22 22 22 53t-22 53l-367 378q-21 22 -51.5 22t-52 -22t-21.5 -53t22 -53l315 -325l-315 -325q-22 -22 -22 -53t22 -53v0v0z" />
    <glyph glyph-name="crown" unicode="&#xe698;" 
d="M833 479q0 -31 25 -50l-172 -131l-152 285q19 7 30.5 23.5t11.5 36.5q0 26 -18.5 44.5t-45.5 18.5t-45.5 -18.5t-18.5 -44.5q0 -20 11.5 -36.5t30.5 -23.5l-152 -285l-172 131q25 19 25 50q0 27 -19 45.5t-45.5 18.5t-45.5 -18.5t-19 -45t19 -45t45 -18.5q9 0 17 2
l57 -257q0 -41 91.5 -70t220.5 -29t220.5 29t91.5 70l57 257q8 -2 17 -2q26 0 45 18.5t19 45t-19 45t-45.5 18.5t-45.5 -18.5t-19 -45.5z" />
    <glyph glyph-name="jiangbei" unicode="&#xe820;" 
d="M688 31q-3 11 -12 17.5t-20 6.5h-71v121q-27 -5 -54.5 -5t-54.5 5v-121h-71q-11 0 -20 -6.5t-12 -17.5l-25 -91q-4 -16 6 -29t26 -13h301v0q14 0 24 10t10 24q0 6 -3 12l-24 87v0zM868 748q-13 3 -27 3h-13v89q0 13 -9.5 22t-22.5 9h-531q-13 0 -22.5 -9t-9.5 -22v-89
h-12q-15 0 -28 -3q-55 -15 -80.5 -75.5t-6.5 -131.5q16 -61 58.5 -100t91.5 -39h9q4 -7 8 -15q1 -2 1 -3q6 -11 13 -21l1 -2q8 -11 15 -20v-1q16 -20 35 -38h0.5t0.5 -1q9 -8 19 -16h0.5t0.5 -1q42 -32 91 -47v0q13 -4 26 -7v0v0q13 -2 27 -4v0v0q14 -1 27.5 -1t27.5 1v0h1
l26 4v0h1q12 3 25 7v0q49 15 91 47q0 1 0.5 1h0.5q10 8 19 16l1 1q19 18 35 38v1q8 9 15 20l1 2q7 11 13 21q0 1 0.5 2l0.5 1q4 8 8 15h10q48 0 90.5 39t58.5 100q19 71 -6.5 131.5t-80.5 75.5v0zM157 555q-12 49 2.5 90.5t47.5 50.5q6 2 14 2q5 0 12 -2v-148q0 -13 2 -27
v-4q1 -11 3 -25q1 -3 1 -4q2 -13 5 -24l0.5 -3.5t1.5 -4.5q-29 5 -53.5 32.5t-35.5 66.5v0zM693 616l-88 -67l32 -105q2 -7 -4 -11q-3 -2 -6 -2t-5 2l-91 63l-91 -63q-6 -4 -12 0t-4 11l32 105l-88 67q-6 4 -3.5 11t9.5 7l111 2l36 104q2 7 9.5 7t9.5 -7l36 -104l111 -2
q7 0 9.5 -7t-3.5 -11v0zM904 555q-11 -39 -35.5 -66.5t-53.5 -32.5l2 4v4l6 24v4q2 13 3 25q0 1 1 4q1 14 1 27v148q7 2 13 2q7 0 14 -2q32 -9 47 -50.5t2 -90.5v0z" />
    <glyph glyph-name="fenxiang" unicode="&#xe6cd;" 
d="M752 120q-31 0 -58 -14l-255 189q5 20 5 39q0 30 -12 58l271 266q24 -10 49 -10q51 0 87.5 36.5t36.5 88t-36.5 87.5t-87.5 36t-87.5 -36t-36.5 -88q0 -16 5 -33l-276 -270q-29 13 -61 13q-61 0 -104.5 -43.5t-43.5 -104.5t43.5 -104.5t104.5 -43.5q43 0 79 23l255 -190
q-2 -12 -2 -23q0 -51 36.5 -87.5t88 -36.5t87.5 36.5t36 87.5t-36 87.5t-88 36.5v0z" />
    <glyph glyph-name="weixin" unicode="&#xe63a;" horiz-adv-x="1025" 
d="M695 550q16 0 35 -2q-24 110 -128.5 182.5t-238.5 72.5q-98 0 -181.5 -40.5t-132.5 -112t-49 -156.5q0 -143 145 -245l-36 -109l127 64q6 -2 25.5 -6t27 -5t22.5 -3.5t27 -3.5t25 -1q16 0 34 2q-11 38 -11 76q0 119 90 203t219 84v0zM497 656q23 0 39.5 -16.5t16.5 -39.5
t-16.5 -39.5t-39.5 -16.5t-39.5 16.5t-16.5 39.5t16.5 39.5t39.5 16.5v0zM243 543q-23 0 -39.5 16.5t-16.5 39.5t16.5 39.5t39.5 16.5t39.5 -16.5t16.5 -39.5t-16.5 -39.5t-39.5 -16.5v0zM1024 266q0 71 -43 132t-114 96.5t-152 35.5q-129 0 -219 -77.5t-90 -186.5
t90 -186.5t219 -77.5q37 0 109 19l100 -55l-27 91q127 95 127 209v0zM620 307q-16 0 -28 11.5t-12 28t12 28.5t28.5 12t28 -12t11.5 -28.5t-11.5 -28t-28.5 -11.5v0zM820 305q-16 0 -28 11.5t-12 28t12 28.5t28.5 12t28 -12t11.5 -28.5t-11.5 -28t-28.5 -11.5v0zM820 305z
" />
    <glyph glyph-name="16pxshoucang" unicode="&#xe687;" 
d="M512 870l-160 -320l-352 -51l256 -249l-58 -352l314 166l314 -166l-58 352l256 249l-352 51z" />
    <glyph glyph-name="dingwei" unicode="&#xe61d;" 
d="M513 -128q-15 19 -39 50.5t-85.5 120.5t-108.5 167.5t-85.5 167.5t-38.5 144q0 96 48 177.5t130 128.5t179 47t179 -47t129.5 -128.5t47.5 -177.5q0 -55 -36.5 -142t-88.5 -172t-105.5 -163t-89 -125t-36.5 -48v0zM509 672q-63 0 -107.5 -44t-44.5 -106t44.5 -106
t107.5 -44t107.5 44t44.5 106t-44.5 106t-107.5 44v0z" />
    <glyph glyph-name="xihuan1" unicode="&#xe65c;" 
d="M723 816q-37 0 -72 -15t-62 -39.5t-44.5 -45.5t-32.5 -44q-15 23 -33 44t-44.5 45.5t-61.5 39.5t-72 15q-112 0 -191 -88.5t-79 -212.5q0 -58 34 -131t82 -116q41 -54 124.5 -131.5t155 -132.5t86.5 -55t85.5 54t153 131t124.5 132q49 44 83 117t34 132q0 124 -79 212.5
t-191 88.5v0zM930 515q0 -47 -29 -107t-69 -96q-1 0 -4 -4q-53 -69 -145.5 -150t-169.5 -137q-222 163 -317 287q-1 2 -4 5q-40 36 -69 95.5t-29 106.5q0 98 61 167.5t146 69.5q52 0 101.5 -47t80.5 -112q8 -17 29 -17t29 17q31 65 80.5 112t101.5 47q85 0 146 -69.5
t61 -167.5v0z" />
    <glyph glyph-name="xiaozufill" unicode="&#xe68f;" 
d="M754 98v0.5v0.5q-9 7 -21 16q0 1 -1 1t-1 1l-22 16q-1 0 -1.5 0.5l-0.5 0.5q-11 8 -25 17q-26 18 -75.5 48.5t-72 46t-22.5 22.5v23q93 85 93 186q0 177 -96 226q-12 6 -26 11q-6 1 -7 2q-5 1 -12 3q-5 1 -13 2q-9 1 -10 1q-14 2 -27 2q-47 0 -84 -15.5t-59.5 -39.5
t-36.5 -57.5t-19.5 -66t-5.5 -68.5q0 -100 94 -186v-23q-1 -9 -46.5 -36t-116 -75t-117.5 -97v-95h768v95q-7 10 -18 21q-8 8 -19 17zM605 803q48 0 85.5 -13t60 -33.5t37.5 -48.5t21 -56t6 -59q0 -121 -71 -186v-23q0 -8 53 -49.5t119.5 -90.5t84.5 -66v-97h-117
q-71 62 -141 109t-112 70t-49 31v23q24 22 37.5 37.5t28 40t21 57t6.5 75.5q0 226 -186 256q39 23 116 23v0z" />
    <glyph glyph-name="xiangji" unicode="&#xe616;" 
d="M824 433q14 0 23.5 10t9.5 24t-9.5 24t-23.5 10q-15 0 -24.5 -10t-9.5 -24q-1 -14 9 -24t25 -10v0zM510 607q-104 0 -178 -74t-74 -178q0 -105 74 -179t178 -74t178.5 74.5t74.5 178.5t-74 178t-179 74v0zM510 175q-74 0 -126.5 53t-52.5 127t52.5 126.5t126.5 52.5
t127 -52.5t53 -126.5t-53 -127t-127 -53v0zM950 623h-186l-39 106q-3 12 -13 19.5t-22 7.5h-359q-26 0 -34 -24l-17 -46h-159q-9 0 -15.5 -6.5t-6.5 -15.5v0v-41h-27h-1q-16 0 -26.5 -10.5t-10.5 -26.5v-562v-1q0 -15 10.5 -25.5t26.5 -10.5h878h1q15 0 26 10.5t11 25.5v563
v0q0 15 -11 26t-26 11v0zM143 642h121l-7 -19h-114v19v0zM913 60h-806v490h175q13 0 23 7.5t13 19.5l38 106h308l40 -109q9 -24 34 -24h175v-490v0zM510 477q-51 0 -87 -36t-36 -87t36.5 -87t87 -36t87 36t36.5 87t-37 87q-36 36 -87 36v0zM510 275q-32 0 -55.5 23t-23.5 56
t23.5 56t55.5 23q34 0 57 -22q22 -24 22 -57q0 -32 -23 -55.5t-56 -23.5v0z" />
    <glyph glyph-name="wode" unicode="&#xe611;" 
d="M538 -118q-88 0 -164 7t-126 17.5t-86.5 23t-52.5 23t-16 18.5q0 126 64.5 234t171.5 166q4 3 8 5q102 -72 204 -72t203 71q10 -5 21 -12q100 -62 159 -167t59 -225q0 -8 -16 -18.5t-52.5 -23t-86 -23t-126 -17.5t-164.5 -7v0v0zM41 -128zM545 896q-118 0 -201.5 -84
t-83.5 -202t83.5 -202t201.5 -84t201.5 84t83.5 202t-83.5 202t-201.5 84v0zM356 523q-6 -7 -15.5 -7t-16 6.5t-6.5 16t6.5 16t16 6.5t15.5 -7q6 -6 6.5 -15t-6.5 -16v0zM531 801q-73 0 -124.5 -52t-51.5 -125q0 -9 -6.5 -15.5t-16 -6.5t-16 6.5t-6.5 15.5q0 92 65 157
t156 65q10 0 16.5 -6.5t6.5 -16t-6.5 -16t-16.5 -6.5v0z" />
    <glyph glyph-name="guanyuwomen" unicode="&#xe60c;" 
d="M698 634q-9 0 -19 -2q22 -33 22 -73v-142q0 -56 -40 -95v-231h61l25 162l25 -162h67v256q20 10 32.5 30t12.5 43v131q0 34 -24.5 58.5t-58.5 24.5h-103zM513.5 667q39.5 0 67.5 28t28 67.5t-28 67.5t-67.5 28t-67.5 -28t-28 -67.5t28 -67.5t67.5 -28zM414 337v-278h73
l27 176l26 -176h68v278q22 11 35.5 32.5t13.5 47.5v142q0 38 -26.5 64.5t-64.5 26.5h-111q-37 0 -63.5 -26.5t-26.5 -64.5v-142q0 -26 13 -47.5t36 -32.5zM740.5 667q39.5 0 67.5 28t28 67.5t-28 67.5t-67.5 28t-67.5 -28t-28 -67.5t28 -67.5t67.5 -28zM287.5 667
q39.5 0 67.5 28t28 67.5t-28 67.5t-67.5 28t-67.5 -28t-28 -67.5t28 -67.5t67.5 -28zM184 347v-256h67l25 162l24 -162h62v231q-40 39 -40 95v142q0 40 21 73q-9 2 -19 2v0h-102q-34 0 -58.5 -24.5t-24.5 -58.5v-131q0 -23 12 -43t33 -30zM891 150q24 -16 24 -34
q0 -42 -118 -71.5t-285 -29.5t-285 29.5t-118 71.5q0 18 24 34q-103 -40 -103 -91q0 -40 64.5 -74.5t175.5 -54.5t242 -20t242 20t175.5 54.5t64.5 74.5q0 51 -103 91z" />
    <glyph glyph-name="nan" unicode="&#xe606;" 
d="M1022 832q0 26 -19 45t-45 19q-7 0 -14 -2h-341q-22 3 -36 -11q-12 -12 -12 -29.5t12 -30.5q13 -13 33 -12v-1h277l-180 -180q-82 67 -184.5 87.5t-204 -9.5t-177.5 -106q-61 -61 -92.5 -140t-31.5 -159t31.5 -159.5t92.5 -140t140 -92.5t159 -32t159 32t140 93
q76 76 106 177t9.5 204t-87.5 185l180 180v-277q0 -18 12 -31q13 -12 30.5 -12t29.5 12q13 13 12 31h1v357v0.5v1.5zM669 63q-65 -65 -152 -88t-174 0t-152 88t-88 152.5t0 174.5t88 152t152 88t174 0t152 -88v0q65 -65 88 -152.5t0 -174.5t-88 -152v0z" />
    <glyph glyph-name="zhishi" unicode="&#xe62d;" 
d="M822 -64h-551v758h241v-314l122 92l119 -92v314h138v-689q0 -29 -20 -49t-49 -20v0v0zM634 518l-88 -69v280h173v-280l-85 69v0zM167 763v-34q0 -15 10.5 -25t24.5 -10h34v-758h-34q-29 0 -49 20t-20 49v758q0 29 20 49t49 20h620q39 0 60 -34h-680q-14 0 -24.5 -10.5
t-10.5 -24.5v0v0z" />
    <glyph glyph-name="tuite" unicode="&#xe653;" 
d="M1024 701q-60 -26 -121 -32q68 40 92 115q-62 -37 -133 -50q-62 66 -153 66q-87 0 -148.5 -61.5t-61.5 -148.5q0 -23 5 -48q-129 7 -241.5 65t-191.5 155q-28 -49 -28 -106q0 -54 25 -100t68 -75q-50 2 -94 27v-3q0 -76 47.5 -133.5t120.5 -72.5q-28 -7 -55 -7
q-19 0 -40 3q20 -63 74 -103.5t122 -41.5q-114 -90 -260 -90q-29 0 -51 3q147 -95 322 -95q112 0 210 35.5t167.5 95t120 136.5t75 161.5t24.5 168.5v28q61 45 105 108z" />
    <glyph glyph-name="qizhi" unicode="&#xe6b6;" 
d="M60 832l246 -934l58 5l-255 942zM790 836q-116 -49 -174 -49q-41 0 -83 15.5t-71 34t-70.5 34t-83.5 15.5q-26 0 -69 -12.5t-75 -25t-30 -12.5l175 -444q115 49 173 49q41 0 83 -15t71.5 -33.5t71.5 -34t83 -15.5q17 0 41 5t46.5 12t42.5 14.5t32 12.5l12 5z" />
    <glyph glyph-name="shouye" unicode="&#xe674;" 
d="M947 415q0 22 -14 42l-335 352q-34 35 -84 36v0h-1.5h-0.5h-0.5h-0.5v0q-50 0 -85 -36q-333 -349 -335 -352q-13 -20 -14 -42v-5q0 -36 25.5 -61.5t62.5 -25.5h21v-309q0 -38 30 -64.5t73 -26.5t73 26.5t30 64.5v309h241v-309q0 -38 30 -64.5t72.5 -26.5t72.5 26.5
t30 64.5v309h22q36 0 62 25.5t26 61.5l-0.5 0.5l-0.5 0.5v4zM816 727l1 -1l66 -68q7 -7 17 -7.5t18 6.5v0l1 1q4 5 5 11q1 2 1 3v3l8 127q1 14 -9 24v0l-1 1q-9 9 -23 9h-130h-2h-1.5h-1.5h-2q-7 -1 -11 -5l-1 -1v0q-8 -7 -8 -17t7 -17z" />
    <glyph glyph-name="iconfontpraise" unicode="&#xe623;" 
d="M911 487h-255q21 75 27.5 136.5t3 100t-15.5 68t-24.5 43.5t-27.5 23.5t-21 11t-10 1.5v0q-24 0 -38 -9t-17 -19.5t-4 -22.5t-2 -14q0 -50 -19.5 -101.5t-47 -88.5t-55.5 -67.5t-48 -45.5l-19 -16v-506q0 -23 19 -39.5t39 -22.5t37 -6h382q16 0 32.5 23.5t24.5 47.5l8 23
q42 144 66 251t26.5 132t2.5 36q0 19 -6.5 32t-16 18.5t-19 8.5t-15.5 2h-7zM233 487h-152q-14 0 -22 -7.5t-9 -15.5l-1 -8l31 -511q0 -14 8.5 -22t16.5 -9l8 -1h132q12 0 19 5.5t7 10.5l1 5v514q0 18 -9.5 27.5t-19.5 10.5z" />
    <glyph glyph-name="f" unicode="&#xe661;" 
d="M547 -128h-491q-23 0 -39.5 16.5t-16.5 40.5v910q0 24 16.5 40.5t40.5 16.5h910q24 0 40.5 -16.5t16.5 -40.5v-910q0 -24 -16.5 -40.5t-40.5 -16.5h-260v397h133l20 154h-153v99q0 37 15.5 56t60.5 19h82v138q-45 6 -119 6q-91 0 -145 -53.5t-54 -150.5v-114h-133v-154
h133v-397v0z" />
    <glyph glyph-name="yijianfankui" unicode="&#xe671;" 
d="M325 648h374q11 0 19 8t8 19t-8 19t-19 8h-374q-11 0 -19 -8t-8 -19t8 -19t19 -8zM325 499h267q11 0 18.5 8t7.5 19t-7.5 19t-18.5 8h-267q-11 0 -19 -8t-8 -19t8 -19t19 -8zM934 583l-67 39v202q0 11 -8 19t-19 8h-656q-11 0 -19 -8t-8 -19v-202l-67 -39l-54 -27v-613
q0 -5 2 -10l0.5 -0.5l0.5 -0.5l2 -4q8 -11 21 -11h0.5h0.5h898q11 0 19 7.5t8 18.5v611zM867 560l63 -37l-63 -36v73zM228 798h568q10 0 13.5 -4t3.5 -14v-324l-301 -176l-301 176v324q0 10 3.5 14t13.5 4zM157 487l-63 36l63 37v-73zM934 -30h-844v494l409 -238h1l1.5 -1
t3.5 -1l0.5 -0.5t1.5 -0.5h3h2h3h2t2 1v0q2 0 4 1l1 1h0.5h1.5l408 238v-494v0zM66 477v-535h887v558l-424 -242l-463 242v-23z" />
    <glyph glyph-name="feiji" unicode="&#xe603;" 
d="M446 -23l113 155l-113 32v-187zM47 340l321 -97l395 336l-306 -362l343 -106l177 680zM47 340z" />
    <glyph glyph-name="sousuo" unicode="&#xe6d1;" 
d="M471 768q93 0 172.5 -46t125.5 -125t46 -172q0 -116 -70 -208l-29 -37l-38 -29q-91 -70 -207 -70q-142 0 -242.5 101t-100.5 243q0 93 46 172t125 125t172 46zM471.5 832q-110.5 0 -204.5 -54.5t-148.5 -148.5t-54.5 -204q0 -83 31.5 -157t88 -130.5t130.5 -88t157 -31.5
q137 0 246 83l148 -148q16 -17 39 -17t39 17v0q16 16 16 39t-16 39l-148 148q83 109 83 246q0 110 -54.5 204t-148 148.5t-204 54.5z" />
    <glyph glyph-name="tianjia" unicode="&#xe604;" 
d="M511 881q-101 0 -192.5 -39.5t-158 -106t-106 -158t-39.5 -192.5t39.5 -192.5t106 -158t158 -106t192.5 -39.5t193 39.5t158.5 106t105.5 158t39 192.5t-39 192.5t-105.5 158t-158.5 106t-193 39.5zM511.5 -40q-115.5 0 -213.5 57t-155 155t-57 213t57 213t155 155
t213.5 57t213.5 -57t155 -155t57 -213t-57 -213t-155 -155t-213.5 -57zM722 421h-176v175q0 15 -10 26t-25 11t-25.5 -11t-10.5 -26v-176h-174q-16 1 -27 -9.5t-11 -25.5t11 -25t27 -10h174v-175q0 -15 10.5 -26t25.5 -11t25 11t10 26v175h175q16 0 27 10t11 25t-11 25.5
t-26 10.5z" />
    <glyph glyph-name="guoshanche" unicode="&#xe636;" horiz-adv-x="1216" 
d="M27 442l1025 -570l41 60l-1031 570zM984 73q5 -1 12.5 -1.5t27 0t34 4t24 15t4.5 29.5q-4 33 -16 73t-21.5 64.5t-9.5 23.5l-192 114q-1 -2 -3.5 -4.5t-10 -9t-14.5 -11.5t-16 -10t-16.5 -7t-14 0.5t-9.5 10.5t-3 24t5 40l-191 107q-2 -2 -6.5 -5t-15.5 -11t-21.5 -12.5
t-21 -8t-17 0.5t-7.5 16q-1 24 1 41t4 21l2 5l-191 114q-5 -3 -12.5 -9.5t-28 -26t-36 -39t-30 -47t-16.5 -52.5zM171 616l-171 60l143 -107zM232 699l-168 68l138 -114zM512 703l158 73l-21 47l-157 -73q0 1 -34 20q-17 9 -31.5 6t-26.5 -13.5t-20.5 -22.5t-12.5 -21
l-5 -10l116 -60zM471 810q2 -2 5 -4.5t12 -5.5t18 -1.5t20 12.5t20 32q4 19 -6 35.5t-29 17.5t-46 -26q-12 -19 -9.5 -35t15.5 -25v0zM635 562l117 -60l34 53l157 74l-21 47l-157 -74q0 1 -34 20q-17 9 -31.5 6.5t-26 -13.5t-20 -22.5t-13.5 -21.5l-5 -9v0zM745 663
q1 -2 4.5 -4.5t12.5 -5.5t17.5 -1.5t20 12.5t20.5 32q3 19 -7 35.5t-29 17.5t-46 -26q-11 -19 -8.5 -35t15.5 -25v0zM909 408l116 -60l34 53l157 74l-21 47l-156 -74q0 1 -35 20q-16 10 -30.5 6.5t-26.5 -13.5t-20.5 -22.5t-13 -21t-4.5 -9.5v0zM1018 509q2 -2 5 -4.5
t12 -5.5t18 -1.5t20 12.5t20 32q4 19 -6.5 35.5t-29.5 17.5t-46 -26q-11 -19 -8.5 -35t15.5 -25z" />
    <glyph glyph-name="arrow-top-copy" unicode="&#xe821;" 
d="M943 149q22 21 22 51.5t-22 51.5l-378 367q-22 22 -53 22t-53 -22l-378 -367q-22 -21 -22 -51.5t22 -52t53 -21.5t53 22l325 315l325 -315q22 -22 53 -22t53 22v0z" />
    <glyph glyph-name="arrow-left-copy" unicode="&#xe822;" 
d="M747 815q-21 22 -51.5 22t-51.5 -22l-367 -378q-22 -22 -22 -53t22 -53l367 -378q21 -22 51.5 -22t52 22t21.5 53t-22 53l-315 325l315 325q22 22 22 53t-22 53v0z" />
    <glyph glyph-name="arrow-bottom-copy" unicode="&#xe823;" 
d="M81 619q-22 -21 -22 -51.5t22 -51.5l378 -367q22 -22 53 -22t53 22l378 367q22 21 22 51.5t-22 52t-53 21.5t-53 -22l-325 -315l-325 315q-22 22 -53 22t-53 -22v0v0z" />
  </font>
</defs>
</svg>
