<?xml version="1.0" standalone="no"?><!DOCTYPE svg PUBLIC "-//W3C//DTD SVG 1.1//EN" "http://www.w3.org/Graphics/SVG/1.1/DTD/svg11.dtd"><svg t="1501040105135" class="icon" style="" viewBox="0 0 1024 1024" version="1.1" xmlns="http://www.w3.org/2000/svg" p-id="2608" xmlns:xlink="http://www.w3.org/1999/xlink" width="200" height="200"><defs><style type="text/css"></style></defs><path d="M938.927439 959.848934c-285.10027 0-570.174957 0-855.2916 0-12.722766-5.012154-21.590737-13.895475-26.610054-26.610054 0-144.908344 0-289.829991 0-434.746522 11.526521-25.894763 48.465828-44.289716 72.755024-60.329017 36.072567-23.814382 75.229378-50.723242 113.557312-76.30385 18.619056-12.409634 42.795689-33.751708 65.662489-30.169113 45.944402 7.227612 22.60995 81.413218 28.385491 138.41649 30.071899 4.76349 48.368614-17.405415 67.428715-30.175253 38.820144-25.983791 75.903737-50.474578 117.117394-78.072123 18.312064-12.265348 45.035706-34.096563 67.420529-30.169113 44.585451 7.846712 20.400632 88.473007 26.619264 138.41649 23.075555 0 46.142923 0 69.204152 0 1.189082 81.028455-2.368954 166.787654 1.783623 244.87615C700.815343 554.461067 716.928323 380.566552 731.313961 211.031321c3.316535-39.107693 1.984191-141.300166 30.169113-154.375973 21.276582-9.864672 118.842689-7.976672 134.850268 1.775436 19.349697 11.766998 17.173125 58.82578 19.525706 99.373265 13.300934 229.27687 26.858718 446.336488 42.595121 670.737304C962.075649 880.275621 978.349287 953.423595 938.927439 959.848934zM161.724335 541.079292c0 34.908044 0 69.797669 0 104.689341 23.061228 0 46.128597 0 69.204152 0 0-34.891671 0-69.781296 0-104.689341C207.852932 541.079292 184.785563 541.079292 161.724335 541.079292zM337.3861 541.079292c0 34.908044 0 69.797669 0 104.689341 23.069415 0 46.128597 0 69.212338 0 0-34.891671 0-69.781296 0-104.689341C383.514697 541.079292 360.455515 541.079292 337.3861 541.079292zM511.281639 541.079292c0 34.908044 0 69.797669 0 104.689341 23.075555 0 46.136783 0 69.212338 0 0-34.891671 0-69.781296 0-104.689341C557.418422 541.079292 534.357194 541.079292 511.281639 541.079292zM161.724335 714.983018c0 34.891671 0 69.797669 0 104.689341 23.061228 0 46.128597 0 69.204152 0 0-34.891671 0-69.797669 0-104.689341C207.852932 714.983018 184.785563 714.983018 161.724335 714.983018zM337.3861 714.983018c0 34.891671 0 69.797669 0 104.689341 23.069415 0 46.128597 0 69.212338 0 0-34.891671 0-69.797669 0-104.689341C383.514697 714.983018 360.455515 714.983018 337.3861 714.983018zM511.281639 714.983018c0 34.891671 0 69.797669 0 104.689341 23.075555 0 46.136783 0 69.212338 0 0-34.891671 0-69.797669 0-104.689341C557.418422 714.983018 534.357194 714.983018 511.281639 714.983018z" p-id="2609" fill="#55C3F4"></path></svg>