<?xml version="1.0" standalone="no"?><!DOCTYPE svg PUBLIC "-//W3C//DTD SVG 1.1//EN" "http://www.w3.org/Graphics/SVG/1.1/DTD/svg11.dtd"><svg t="1501040068675" class="icon" style="" viewBox="0 0 1024 1024" version="1.1" xmlns="http://www.w3.org/2000/svg" p-id="2425" xmlns:xlink="http://www.w3.org/1999/xlink" width="200" height="200"><defs><style type="text/css"></style></defs><path d="M667.776 721.6c63.552-58.112 92.224-125.12 93.248-217.6 1.536-141.504-107.328-248.64-248.704-248.64-141.248 0-248.576 107.072-248.64 248.64 0.064 86.272 25.984 155.776 93.312 217.6l31.04-62.208c-36.736-32.448-62.08-102.4-62.144-155.392 0.128-97.984 88.768-186.304 186.496-186.496 97.792 0.192 186.368 88.512 186.56 186.496-0.128 56.256-21.376 122.944-62.208 155.392L667.776 721.6zM481.28 535.104l-155.392 466.304 370.88 0L543.424 535.104 481.28 535.104zM938.752 412.096c-11.2-59.392-33.472-114.88-66.048-163.392 7.296-11.904 12.672-25.088 12.672-40 0-42.88-34.816-77.696-77.76-77.696-14.528 0-27.392 5.056-38.976 12.032-46.4-31.744-101.376-54.656-164.48-65.92-3.84-39.296-35.904-70.4-76.224-70.4-38.656 0-69.312 28.736-75.264 65.728C375.68 80.896 309.76 105.792 255.744 142.784 244.16 136 231.424 131.008 217.024 131.008c-42.88 0-77.696 34.752-77.696 77.696 0 14.848 5.312 27.968 12.48 39.744C119.296 297.024 97.024 352.64 85.824 412.096 46.272 415.808 14.976 448 14.976 488.448c0 39.04 29.248 69.952 66.752 75.456 9.024 61.504 31.744 121.92 63.68 174.272-3.904 9.28-6.08 19.392-6.08 30.016 0 42.88 34.752 77.632 77.696 77.632 7.04 0 13.376-2.24 19.904-3.968 18.432 14.08 37.44 26.56 57.856 35.136l31.104-62.144c-13.184-3.904-25.344-9.856-37.184-16.448 3.904-9.28 6.08-19.456 6.08-30.208 0-42.88-34.752-77.696-77.696-77.696-9.152 0-17.6 2.304-25.728 5.184-26.112-46.464-42.752-99.456-49.024-148.672 16.832-14.272 28.096-34.752 28.096-58.56 0-22.016-9.344-41.664-24-55.808 9.984-52.16 30.784-103.104 62.016-147.968 2.944 0.32 5.568 1.728 8.64 1.728 42.944 0 77.696-34.752 77.696-77.696 0-3.584-1.536-6.592-2.048-9.984 48-34.368 106.688-58.24 176.192-65.344 14.272 17.216 34.88 28.736 58.944 28.736 22.272 0 41.984-9.6 56.192-24.576 57.28 9.92 106.752 31.232 147.968 60.864-0.448 3.52-2.048 6.656-2.048 10.368 0 42.944 34.752 77.696 77.696 77.696 3.136 0 5.824-1.408 8.896-1.792 31.104 44.864 51.904 95.872 61.824 147.968-14.656 14.144-24.064 33.792-24.064 55.872 0 23.36 10.816 43.648 27.136 57.856-8.64 50.112-31.488 101.056-61.696 146.624-4.096-0.704-7.808-2.432-12.032-2.432-42.944 0-77.696 34.816-77.696 77.696 0 7.616 2.304 14.464 4.288 21.376-11.648 9.536-23.488 18.048-35.392 25.28l31.04 62.144c18.688-10.368 36.16-22.72 53.056-36.032 7.808 2.624 15.872 4.928 24.64 4.928 42.944 0 77.76-34.752 77.76-77.632 0-11.712-3.008-22.528-7.552-32.448 33.024-51.328 56.192-109.696 65.28-171.84 37.44-5.568 66.624-36.48 66.624-75.456C1009.664 447.936 978.368 415.744 938.752 412.096z" p-id="2426" fill="#74B942"></path></svg>