<?xml version="1.0" standalone="no"?><!DOCTYPE svg PUBLIC "-//W3C//DTD SVG 1.1//EN" "http://www.w3.org/Graphics/SVG/1.1/DTD/svg11.dtd"><svg t="1501040147546" class="icon" style="" viewBox="0 0 1216 1024" version="1.1" xmlns="http://www.w3.org/2000/svg" p-id="2997" xmlns:xlink="http://www.w3.org/1999/xlink" width="237.5" height="200"><defs><style type="text/css"></style></defs><path d="M27.323208 454.483489L1052.226521 1024l41.164908-60.255135L61.747363 394.176898z m956.569564 368.425932s117.886007 17.495086 102.500623-46.876539c-10.908701-74.662853-47.854206-160.748968-47.854207-160.748968l-191.262456-113.923885s-113.203499 115.210288-81.969625-33.497945l-191.365369-107.18313S488.473097 430.659298 485.128448 380.798303c-1.852421-54.286223 6.843666-66.892977 6.843666-66.892977L300.658201 199.929985S186.631404 285.913188 177.626581 374.109005zM170.834371 280.30447L0 220.049335l143.459707 107.18313z m61.078433-83.050204L64.217257 129.02343l138.108269 113.769517z m280.538852-3.962122l157.147039-73.685186-20.582454-46.87654-157.044127 73.63373s0-0.874754-34.166874-20.119349c-55.315346-32.108629-95.656956 60.306591-95.656956 60.306591L478.284782 247.01235z m-41.164908-107.183131s42.760049 41.67947 75.177414-33.497944c6.946578-35.659102-29.43291-82.638554-81.866712-26.860103-15.899946 24.647489-9.416473 48.934785 6.843666 60.306591z m163.990704 247.81275l116.290867 60.255135 34.166874-53.565837 157.147039-73.685187-20.582454-46.876539-157.044127 73.685186s0-0.874754-34.166874-20.119349c-55.26389-32.108629-95.656956 60.306591-95.656956 60.306591z m109.344289-100.493833s42.760049 41.67947 75.177414-33.497945c6.79221-35.607646-29.587278-82.587098-81.969624-26.808646-15.84849 24.647489-9.365017 48.883329 6.946578 60.306591z m163.990705 254.553504l116.136498 60.306591 34.166874-53.565838 157.147039-73.685186-20.582454-46.87654L1038.590645 447.691279s0-0.874754-34.166875-20.067893c-55.315346-32.057173-95.656956 60.358047-95.656956 60.358048z m109.4472-100.493834s42.760049 41.67947 75.177415-33.497944c6.79221-35.607646-29.587278-82.587098-81.969625-26.808647-15.951402 24.647489-9.519385 48.934785 6.79221 60.306591z" p-id="2998" fill="#FC704B"></path></svg>